<svg width="1363" height="163" viewBox="0 0 1363 163" fill="none" xmlns="http://www.w3.org/2000/svg">
<path d="M0 15C0 6.71573 6.71573 0 15 0H37V163H15C6.71573 163 0 156.284 0 148V15Z" fill="#424242"/>
<rect width="1097" height="163" transform="translate(37)" fill="#F0F0F0"/>
<path d="M101.906 53.9219L94.3945 51.2383V48.0859L104.602 52.375V54.6367L101.906 53.9219ZM94.3945 56.1719L101.918 53.4297L104.602 52.7852V55.0352L94.3945 59.3242V56.1719ZM119.836 46.8555L115.195 61H111.457L117.797 43.9375H120.176L119.836 46.8555ZM123.691 61L119.039 46.8555L118.664 43.9375H121.066L127.441 61H123.691ZM123.48 54.6484V57.4023H114.469V54.6484H123.48ZM134.051 58.5977C134.465 58.5977 134.832 58.5195 135.152 58.3633C135.473 58.1992 135.723 57.9727 135.902 57.6836C136.09 57.3867 136.188 57.0391 136.195 56.6406H139.371C139.363 57.5312 139.125 58.3242 138.656 59.0195C138.188 59.707 137.559 60.25 136.77 60.6484C135.98 61.0391 135.098 61.2344 134.121 61.2344C133.137 61.2344 132.277 61.0703 131.543 60.7422C130.816 60.4141 130.211 59.9609 129.727 59.3828C129.242 58.7969 128.879 58.1172 128.637 57.3438C128.395 56.5625 128.273 55.7266 128.273 54.8359V54.4961C128.273 53.5977 128.395 52.7617 128.637 51.9883C128.879 51.207 129.242 50.5273 129.727 49.9492C130.211 49.3633 130.816 48.9062 131.543 48.5781C132.27 48.25 133.121 48.0859 134.098 48.0859C135.137 48.0859 136.047 48.2852 136.828 48.6836C137.617 49.082 138.234 49.6523 138.68 50.3945C139.133 51.1289 139.363 52 139.371 53.0078H136.195C136.188 52.5859 136.098 52.2031 135.926 51.8594C135.762 51.5156 135.52 51.2422 135.199 51.0391C134.887 50.8281 134.5 50.7227 134.039 50.7227C133.547 50.7227 133.145 50.8281 132.832 51.0391C132.52 51.2422 132.277 51.5234 132.105 51.8828C131.934 52.2344 131.812 52.6367 131.742 53.0898C131.68 53.5352 131.648 54.0039 131.648 54.4961V54.8359C131.648 55.3281 131.68 55.8008 131.742 56.2539C131.805 56.707 131.922 57.1094 132.094 57.4609C132.273 57.8125 132.52 58.0898 132.832 58.293C133.145 58.4961 133.551 58.5977 134.051 58.5977ZM146.566 58.5977C146.98 58.5977 147.348 58.5195 147.668 58.3633C147.988 58.1992 148.238 57.9727 148.418 57.6836C148.605 57.3867 148.703 57.0391 148.711 56.6406H151.887C151.879 57.5312 151.641 58.3242 151.172 59.0195C150.703 59.707 150.074 60.25 149.285 60.6484C148.496 61.0391 147.613 61.2344 146.637 61.2344C145.652 61.2344 144.793 61.0703 144.059 60.7422C143.332 60.4141 142.727 59.9609 142.242 59.3828C141.758 58.7969 141.395 58.1172 141.152 57.3438C140.91 56.5625 140.789 55.7266 140.789 54.8359V54.4961C140.789 53.5977 140.91 52.7617 141.152 51.9883C141.395 51.207 141.758 50.5273 142.242 49.9492C142.727 49.3633 143.332 48.9062 144.059 48.5781C144.785 48.25 145.637 48.0859 146.613 48.0859C147.652 48.0859 148.562 48.2852 149.344 48.6836C150.133 49.082 150.75 49.6523 151.195 50.3945C151.648 51.1289 151.879 52 151.887 53.0078H148.711C148.703 52.5859 148.613 52.2031 148.441 51.8594C148.277 51.5156 148.035 51.2422 147.715 51.0391C147.402 50.8281 147.016 50.7227 146.555 50.7227C146.062 50.7227 145.66 50.8281 145.348 51.0391C145.035 51.2422 144.793 51.5234 144.621 51.8828C144.449 52.2344 144.328 52.6367 144.258 53.0898C144.195 53.5352 144.164 54.0039 144.164 54.4961V54.8359C144.164 55.3281 144.195 55.8008 144.258 56.2539C144.32 56.707 144.438 57.1094 144.609 57.4609C144.789 57.8125 145.035 58.0898 145.348 58.293C145.66 58.4961 146.066 58.5977 146.566 58.5977ZM157.406 48.3203V61H154.02V48.3203H157.406ZM153.809 45.0156C153.809 44.5234 153.98 44.1172 154.324 43.7969C154.668 43.4766 155.129 43.3164 155.707 43.3164C156.277 43.3164 156.734 43.4766 157.078 43.7969C157.43 44.1172 157.605 44.5234 157.605 45.0156C157.605 45.5078 157.43 45.9141 157.078 46.2344C156.734 46.5547 156.277 46.7148 155.707 46.7148C155.129 46.7148 154.668 46.5547 154.324 46.2344C153.98 45.9141 153.809 45.5078 153.809 45.0156ZM168.035 43.9375V61H164.531V43.9375H168.035ZM173.285 43.9375V46.6914H159.363V43.9375H173.285ZM177.633 51.0859V61H174.258V48.3203H177.434L177.633 51.0859ZM181.453 48.2383L181.395 51.3672C181.23 51.3438 181.031 51.3242 180.797 51.3086C180.57 51.2852 180.363 51.2734 180.176 51.2734C179.699 51.2734 179.285 51.3359 178.934 51.4609C178.59 51.5781 178.301 51.7539 178.066 51.9883C177.84 52.2227 177.668 52.5078 177.551 52.8438C177.441 53.1797 177.379 53.5625 177.363 53.9922L176.684 53.7812C176.684 52.9609 176.766 52.207 176.93 51.5195C177.094 50.8242 177.332 50.2188 177.645 49.7031C177.965 49.1875 178.355 48.7891 178.816 48.5078C179.277 48.2266 179.805 48.0859 180.398 48.0859C180.586 48.0859 180.777 48.1016 180.973 48.1328C181.168 48.1562 181.328 48.1914 181.453 48.2383ZM189.492 58.1406V52.4922C189.492 52.0859 189.426 51.7383 189.293 51.4492C189.16 51.1523 188.953 50.9219 188.672 50.7578C188.398 50.5938 188.043 50.5117 187.605 50.5117C187.23 50.5117 186.906 50.5781 186.633 50.7109C186.359 50.8359 186.148 51.0195 186 51.2617C185.852 51.4961 185.777 51.7734 185.777 52.0938H182.402C182.402 51.5547 182.527 51.043 182.777 50.5586C183.027 50.0742 183.391 49.6484 183.867 49.2812C184.344 48.9062 184.91 48.6133 185.566 48.4023C186.23 48.1914 186.973 48.0859 187.793 48.0859C188.777 48.0859 189.652 48.25 190.418 48.5781C191.184 48.9062 191.785 49.3984 192.223 50.0547C192.668 50.7109 192.891 51.5312 192.891 52.5156V57.9414C192.891 58.6367 192.934 59.207 193.02 59.6523C193.105 60.0898 193.23 60.4727 193.395 60.8008V61H189.984C189.82 60.6562 189.695 60.2266 189.609 59.7109C189.531 59.1875 189.492 58.6641 189.492 58.1406ZM189.938 53.2773L189.961 55.1875H188.074C187.629 55.1875 187.242 55.2383 186.914 55.3398C186.586 55.4414 186.316 55.5859 186.105 55.7734C185.895 55.9531 185.738 56.1641 185.637 56.4062C185.543 56.6484 185.496 56.9141 185.496 57.2031C185.496 57.4922 185.562 57.7539 185.695 57.9883C185.828 58.2148 186.02 58.3945 186.27 58.5273C186.52 58.6523 186.812 58.7148 187.148 58.7148C187.656 58.7148 188.098 58.6133 188.473 58.4102C188.848 58.207 189.137 57.957 189.34 57.6602C189.551 57.3633 189.66 57.082 189.668 56.8164L190.559 58.2461C190.434 58.5664 190.262 58.8984 190.043 59.2422C189.832 59.5859 189.562 59.9102 189.234 60.2148C188.906 60.5117 188.512 60.7578 188.051 60.9531C187.59 61.1406 187.043 61.2344 186.41 61.2344C185.605 61.2344 184.875 61.0742 184.219 60.7539C183.57 60.4258 183.055 59.9766 182.672 59.4062C182.297 58.8281 182.109 58.1719 182.109 57.4375C182.109 56.7734 182.234 56.1836 182.484 55.668C182.734 55.1523 183.102 54.7188 183.586 54.3672C184.078 54.0078 184.691 53.7383 185.426 53.5586C186.16 53.3711 187.012 53.2773 187.98 53.2773H189.938ZM200.73 58.5977C201.145 58.5977 201.512 58.5195 201.832 58.3633C202.152 58.1992 202.402 57.9727 202.582 57.6836C202.77 57.3867 202.867 57.0391 202.875 56.6406H206.051C206.043 57.5312 205.805 58.3242 205.336 59.0195C204.867 59.707 204.238 60.25 203.449 60.6484C202.66 61.0391 201.777 61.2344 200.801 61.2344C199.816 61.2344 198.957 61.0703 198.223 60.7422C197.496 60.4141 196.891 59.9609 196.406 59.3828C195.922 58.7969 195.559 58.1172 195.316 57.3438C195.074 56.5625 194.953 55.7266 194.953 54.8359V54.4961C194.953 53.5977 195.074 52.7617 195.316 51.9883C195.559 51.207 195.922 50.5273 196.406 49.9492C196.891 49.3633 197.496 48.9062 198.223 48.5781C198.949 48.25 199.801 48.0859 200.777 48.0859C201.816 48.0859 202.727 48.2852 203.508 48.6836C204.297 49.082 204.914 49.6523 205.359 50.3945C205.812 51.1289 206.043 52 206.051 53.0078H202.875C202.867 52.5859 202.777 52.2031 202.605 51.8594C202.441 51.5156 202.199 51.2422 201.879 51.0391C201.566 50.8281 201.18 50.7227 200.719 50.7227C200.227 50.7227 199.824 50.8281 199.512 51.0391C199.199 51.2422 198.957 51.5234 198.785 51.8828C198.613 52.2344 198.492 52.6367 198.422 53.0898C198.359 53.5352 198.328 54.0039 198.328 54.4961V54.8359C198.328 55.3281 198.359 55.8008 198.422 56.2539C198.484 56.707 198.602 57.1094 198.773 57.4609C198.953 57.8125 199.199 58.0898 199.512 58.293C199.824 58.4961 200.23 58.5977 200.73 58.5977ZM211.383 42.9883V61H208.008V42.9883H211.383ZM219.375 48.3203L213.867 54.6016L210.914 57.5898L209.684 55.1523L212.027 52.1758L215.32 48.3203H219.375ZM215.871 61L212.121 55.1406L214.453 53.1016L219.762 61H215.871Z" fill="#888888"/>
<path d="M118.594 98.4219V104.75H101.086V98.4219H118.594ZM103.828 84.875V119H95.6016V84.875H103.828ZM124.125 84.875V119H115.922V84.875H124.125ZM127.992 106.578V106.086C127.992 104.227 128.258 102.516 128.789 100.953C129.32 99.375 130.102 98.0078 131.133 96.8516C132.164 95.6953 133.438 94.7969 134.953 94.1562C136.469 93.5 138.219 93.1719 140.203 93.1719C142.203 93.1719 143.961 93.5 145.477 94.1562C147.008 94.7969 148.289 95.6953 149.32 96.8516C150.352 98.0078 151.133 99.375 151.664 100.953C152.195 102.516 152.461 104.227 152.461 106.086V106.578C152.461 108.422 152.195 110.133 151.664 111.711C151.133 113.273 150.352 114.641 149.32 115.812C148.289 116.969 147.016 117.867 145.5 118.508C143.984 119.148 142.234 119.469 140.25 119.469C138.266 119.469 136.508 119.148 134.977 118.508C133.445 117.867 132.164 116.969 131.133 115.812C130.102 114.641 129.32 113.273 128.789 111.711C128.258 110.133 127.992 108.422 127.992 106.578ZM135.891 106.086V106.578C135.891 107.531 135.961 108.422 136.102 109.25C136.242 110.078 136.477 110.805 136.805 111.43C137.133 112.039 137.578 112.516 138.141 112.859C138.703 113.203 139.406 113.375 140.25 113.375C141.078 113.375 141.766 113.203 142.312 112.859C142.875 112.516 143.32 112.039 143.648 111.43C143.977 110.805 144.211 110.078 144.352 109.25C144.492 108.422 144.562 107.531 144.562 106.578V106.086C144.562 105.164 144.492 104.297 144.352 103.484C144.211 102.656 143.977 101.93 143.648 101.305C143.32 100.664 142.875 100.164 142.312 99.8047C141.75 99.4453 141.047 99.2656 140.203 99.2656C139.375 99.2656 138.68 99.4453 138.117 99.8047C137.57 100.164 137.133 100.664 136.805 101.305C136.477 101.93 136.242 102.656 136.102 103.484C135.961 104.297 135.891 105.164 135.891 106.086ZM163.688 111.453L168.375 93.6406H173.32L171.562 102.57L166.922 119H162.961L163.688 111.453ZM161.836 93.6406L164.742 111.312L165.07 119H160.266L154.266 93.6406H161.836ZM177.492 110.938L180.422 93.6406H187.992L182.039 119H177.234L177.492 110.938ZM173.883 93.6406L178.617 111.406L179.344 119H175.336L170.789 102.617L169.102 93.6406H173.883ZM218.297 84.875V119H210.07V84.875H218.297ZM228.562 84.875V91.2266H200.039V84.875H228.562ZM225.773 106.578V106.086C225.773 104.227 226.039 102.516 226.57 100.953C227.102 99.375 227.883 98.0078 228.914 96.8516C229.945 95.6953 231.219 94.7969 232.734 94.1562C234.25 93.5 236 93.1719 237.984 93.1719C239.984 93.1719 241.742 93.5 243.258 94.1562C244.789 94.7969 246.07 95.6953 247.102 96.8516C248.133 98.0078 248.914 99.375 249.445 100.953C249.977 102.516 250.242 104.227 250.242 106.086V106.578C250.242 108.422 249.977 110.133 249.445 111.711C248.914 113.273 248.133 114.641 247.102 115.812C246.07 116.969 244.797 117.867 243.281 118.508C241.766 119.148 240.016 119.469 238.031 119.469C236.047 119.469 234.289 119.148 232.758 118.508C231.227 117.867 229.945 116.969 228.914 115.812C227.883 114.641 227.102 113.273 226.57 111.711C226.039 110.133 225.773 108.422 225.773 106.578ZM233.672 106.086V106.578C233.672 107.531 233.742 108.422 233.883 109.25C234.023 110.078 234.258 110.805 234.586 111.43C234.914 112.039 235.359 112.516 235.922 112.859C236.484 113.203 237.188 113.375 238.031 113.375C238.859 113.375 239.547 113.203 240.094 112.859C240.656 112.516 241.102 112.039 241.43 111.43C241.758 110.805 241.992 110.078 242.133 109.25C242.273 108.422 242.344 107.531 242.344 106.578V106.086C242.344 105.164 242.273 104.297 242.133 103.484C241.992 102.656 241.758 101.93 241.43 101.305C241.102 100.664 240.656 100.164 240.094 99.8047C239.531 99.4453 238.828 99.2656 237.984 99.2656C237.156 99.2656 236.461 99.4453 235.898 99.8047C235.352 100.164 234.914 100.664 234.586 101.305C234.258 101.93 234.023 102.656 233.883 103.484C233.742 104.297 233.672 105.164 233.672 106.086ZM266.086 84.875H279.516C282.141 84.875 284.422 85.2656 286.359 86.0469C288.297 86.8281 289.789 87.9844 290.836 89.5156C291.898 91.0469 292.43 92.9375 292.43 95.1875C292.43 97.1406 292.125 98.7734 291.516 100.086C290.906 101.398 290.055 102.484 288.961 103.344C287.883 104.188 286.625 104.883 285.188 105.43L282.492 106.953H271.219L271.172 100.602H279.516C280.562 100.602 281.43 100.414 282.117 100.039C282.805 99.6641 283.32 99.1328 283.664 98.4453C284.023 97.7422 284.203 96.9062 284.203 95.9375C284.203 94.9531 284.023 94.1094 283.664 93.4062C283.305 92.7031 282.773 92.1641 282.07 91.7891C281.383 91.4141 280.531 91.2266 279.516 91.2266H274.312V119H266.086V84.875ZM284.766 119L277.219 103.906L285.938 103.859L293.578 118.648V119H284.766ZM311.836 112.836V93.6406H319.758V119H312.352L311.836 112.836ZM312.586 107.68L314.648 107.633C314.648 109.336 314.445 110.914 314.039 112.367C313.633 113.805 313.031 115.055 312.234 116.117C311.453 117.18 310.484 118.008 309.328 118.602C308.188 119.18 306.867 119.469 305.367 119.469C304.117 119.469 302.969 119.297 301.922 118.953C300.891 118.594 300 118.039 299.25 117.289C298.5 116.523 297.914 115.547 297.492 114.359C297.086 113.156 296.883 111.719 296.883 110.047V93.6406H304.781V110.094C304.781 110.656 304.852 111.141 304.992 111.547C305.133 111.953 305.336 112.297 305.602 112.578C305.867 112.844 306.195 113.047 306.586 113.188C306.992 113.312 307.453 113.375 307.969 113.375C309.156 113.375 310.086 113.125 310.758 112.625C311.43 112.125 311.898 111.445 312.164 110.586C312.445 109.727 312.586 108.758 312.586 107.68ZM331.875 99.0547V119H323.977V93.6406H331.383L331.875 99.0547ZM330.938 105.453L329.086 105.5C329.086 103.562 329.32 101.836 329.789 100.32C330.258 98.7891 330.922 97.4922 331.781 96.4297C332.641 95.3672 333.664 94.5625 334.852 94.0156C336.055 93.4531 337.391 93.1719 338.859 93.1719C340.031 93.1719 341.102 93.3438 342.07 93.6875C343.055 94.0312 343.898 94.5859 344.602 95.3516C345.32 96.1172 345.867 97.1328 346.242 98.3984C346.633 99.6484 346.828 101.195 346.828 103.039V119H338.883V103.016C338.883 102 338.742 101.227 338.461 100.695C338.18 100.148 337.773 99.7734 337.242 99.5703C336.711 99.3672 336.062 99.2656 335.297 99.2656C334.484 99.2656 333.797 99.4219 333.234 99.7344C332.672 100.047 332.219 100.484 331.875 101.047C331.547 101.594 331.305 102.242 331.148 102.992C331.008 103.742 330.938 104.562 330.938 105.453ZM363.773 108.195H357.047C357.047 106.82 357.141 105.609 357.328 104.562C357.531 103.5 357.875 102.547 358.359 101.703C358.844 100.859 359.5 100.078 360.328 99.3594C361.062 98.75 361.695 98.1641 362.227 97.6016C362.758 97.0391 363.164 96.4688 363.445 95.8906C363.727 95.3125 363.867 94.6953 363.867 94.0391C363.867 93.2266 363.75 92.5625 363.516 92.0469C363.297 91.5312 362.961 91.1484 362.508 90.8984C362.07 90.6328 361.516 90.5 360.844 90.5C360.297 90.5 359.781 90.6328 359.297 90.8984C358.828 91.1641 358.445 91.5781 358.148 92.1406C357.852 92.6875 357.688 93.4141 357.656 94.3203H349.711C349.758 91.9922 350.273 90.1016 351.258 88.6484C352.258 87.1797 353.586 86.1094 355.242 85.4375C356.914 84.75 358.781 84.4062 360.844 84.4062C363.125 84.4062 365.086 84.7578 366.727 85.4609C368.367 86.1641 369.625 87.2109 370.5 88.6016C371.375 89.9766 371.812 91.6719 371.812 93.6875C371.812 95.0312 371.555 96.2031 371.039 97.2031C370.539 98.1875 369.859 99.1094 369 99.9688C368.156 100.812 367.211 101.719 366.164 102.688C365.258 103.484 364.641 104.297 364.312 105.125C363.984 105.938 363.805 106.961 363.773 108.195ZM356.086 115.32C356.086 114.195 356.492 113.258 357.305 112.508C358.117 111.742 359.172 111.359 360.469 111.359C361.766 111.359 362.82 111.742 363.633 112.508C364.445 113.258 364.852 114.195 364.852 115.32C364.852 116.445 364.445 117.391 363.633 118.156C362.82 118.906 361.766 119.281 360.469 119.281C359.172 119.281 358.117 118.906 357.305 118.156C356.492 117.391 356.086 116.445 356.086 115.32Z" fill="black"/>
<path d="M1134 0H1348C1356.28 0 1363 6.71573 1363 15V148C1363 156.284 1356.28 163 1348 163H1134V0Z" fill="#264653"/>
<path d="M1260.62 78.8847C1263.81 78.8847 1266.93 79.805 1269.59 81.5293C1272.25 83.2536 1274.32 85.7044 1275.54 88.5718C1276.76 91.4391 1277.08 94.5943 1276.46 97.6383C1275.84 100.682 1274.3 103.478 1272.04 105.673C1269.78 107.868 1266.9 109.362 1263.77 109.968C1260.63 110.573 1257.39 110.262 1254.43 109.075C1251.48 107.887 1248.96 105.876 1247.18 103.295C1245.41 100.714 1244.46 97.6806 1244.46 94.5769C1244.46 90.4151 1246.16 86.4237 1249.19 83.4808C1252.22 80.538 1256.33 78.8847 1260.62 78.8847ZM1260.62 73.6539C1256.36 73.6539 1252.19 74.881 1248.65 77.1801C1245.11 79.4791 1242.35 82.7469 1240.72 86.57C1239.09 90.3932 1238.66 94.6001 1239.49 98.6588C1240.32 102.717 1242.37 106.446 1245.39 109.372C1248.4 112.298 1252.24 114.291 1256.41 115.098C1260.59 115.905 1264.92 115.491 1268.86 113.907C1272.79 112.324 1276.16 109.642 1278.52 106.201C1280.89 102.76 1282.15 98.7151 1282.15 94.5769C1282.15 89.0278 1279.88 83.706 1275.85 79.7821C1271.81 75.8583 1266.33 73.6539 1260.62 73.6539Z" fill="white"/>
<path d="M1274.08 47.5H1220.23C1218.8 47.5 1217.43 48.0511 1216.42 49.0321C1215.41 50.013 1214.85 51.3435 1214.85 52.7307V105.038C1214.85 106.426 1215.41 107.756 1216.42 108.737C1217.43 109.718 1218.8 110.269 1220.23 110.269H1231V105.038H1220.23V68.423H1279.46V52.7307C1279.46 51.3435 1278.89 50.013 1277.88 49.0321C1276.87 48.0511 1275.5 47.5 1274.08 47.5ZM1220.23 63.1922V52.7307H1274.08V63.1922H1220.23Z" fill="white"/>
<path d="M1255.23 86.731V102.423L1268.69 94.5771L1255.23 86.731Z" fill="white"/>
</svg>
