<svg width="1363" height="163" viewBox="0 0 1363 163" fill="none" xmlns="http://www.w3.org/2000/svg">
<path d="M0 15C0 6.71573 6.71573 0 15 0H37V163H15C6.71573 163 0 156.284 0 148V15Z" fill="#424242"/>
<rect width="1097" height="163" transform="translate(37)" fill="#F0F0F0"/>
<path d="M101.906 53.9219L94.3945 51.2383V48.0859L104.602 52.375V54.6367L101.906 53.9219ZM94.3945 56.1719L101.918 53.4297L104.602 52.7852V55.0352L94.3945 59.3242V56.1719ZM119.836 46.8555L115.195 61H111.457L117.797 43.9375H120.176L119.836 46.8555ZM123.691 61L119.039 46.8555L118.664 43.9375H121.066L127.441 61H123.691ZM123.48 54.6484V57.4023H114.469V54.6484H123.48ZM134.051 58.5977C134.465 58.5977 134.832 58.5195 135.152 58.3633C135.473 58.1992 135.723 57.9727 135.902 57.6836C136.09 57.3867 136.188 57.0391 136.195 56.6406H139.371C139.363 57.5312 139.125 58.3242 138.656 59.0195C138.188 59.707 137.559 60.25 136.77 60.6484C135.98 61.0391 135.098 61.2344 134.121 61.2344C133.137 61.2344 132.277 61.0703 131.543 60.7422C130.816 60.4141 130.211 59.9609 129.727 59.3828C129.242 58.7969 128.879 58.1172 128.637 57.3438C128.395 56.5625 128.273 55.7266 128.273 54.8359V54.4961C128.273 53.5977 128.395 52.7617 128.637 51.9883C128.879 51.207 129.242 50.5273 129.727 49.9492C130.211 49.3633 130.816 48.9062 131.543 48.5781C132.27 48.25 133.121 48.0859 134.098 48.0859C135.137 48.0859 136.047 48.2852 136.828 48.6836C137.617 49.082 138.234 49.6523 138.68 50.3945C139.133 51.1289 139.363 52 139.371 53.0078H136.195C136.188 52.5859 136.098 52.2031 135.926 51.8594C135.762 51.5156 135.52 51.2422 135.199 51.0391C134.887 50.8281 134.5 50.7227 134.039 50.7227C133.547 50.7227 133.145 50.8281 132.832 51.0391C132.52 51.2422 132.277 51.5234 132.105 51.8828C131.934 52.2344 131.812 52.6367 131.742 53.0898C131.68 53.5352 131.648 54.0039 131.648 54.4961V54.8359C131.648 55.3281 131.68 55.8008 131.742 56.2539C131.805 56.707 131.922 57.1094 132.094 57.4609C132.273 57.8125 132.52 58.0898 132.832 58.293C133.145 58.4961 133.551 58.5977 134.051 58.5977ZM146.566 58.5977C146.98 58.5977 147.348 58.5195 147.668 58.3633C147.988 58.1992 148.238 57.9727 148.418 57.6836C148.605 57.3867 148.703 57.0391 148.711 56.6406H151.887C151.879 57.5312 151.641 58.3242 151.172 59.0195C150.703 59.707 150.074 60.25 149.285 60.6484C148.496 61.0391 147.613 61.2344 146.637 61.2344C145.652 61.2344 144.793 61.0703 144.059 60.7422C143.332 60.4141 142.727 59.9609 142.242 59.3828C141.758 58.7969 141.395 58.1172 141.152 57.3438C140.91 56.5625 140.789 55.7266 140.789 54.8359V54.4961C140.789 53.5977 140.91 52.7617 141.152 51.9883C141.395 51.207 141.758 50.5273 142.242 49.9492C142.727 49.3633 143.332 48.9062 144.059 48.5781C144.785 48.25 145.637 48.0859 146.613 48.0859C147.652 48.0859 148.562 48.2852 149.344 48.6836C150.133 49.082 150.75 49.6523 151.195 50.3945C151.648 51.1289 151.879 52 151.887 53.0078H148.711C148.703 52.5859 148.613 52.2031 148.441 51.8594C148.277 51.5156 148.035 51.2422 147.715 51.0391C147.402 50.8281 147.016 50.7227 146.555 50.7227C146.062 50.7227 145.66 50.8281 145.348 51.0391C145.035 51.2422 144.793 51.5234 144.621 51.8828C144.449 52.2344 144.328 52.6367 144.258 53.0898C144.195 53.5352 144.164 54.0039 144.164 54.4961V54.8359C144.164 55.3281 144.195 55.8008 144.258 56.2539C144.32 56.707 144.438 57.1094 144.609 57.4609C144.789 57.8125 145.035 58.0898 145.348 58.293C145.66 58.4961 146.066 58.5977 146.566 58.5977ZM157.406 48.3203V61H154.02V48.3203H157.406ZM153.809 45.0156C153.809 44.5234 153.98 44.1172 154.324 43.7969C154.668 43.4766 155.129 43.3164 155.707 43.3164C156.277 43.3164 156.734 43.4766 157.078 43.7969C157.43 44.1172 157.605 44.5234 157.605 45.0156C157.605 45.5078 157.43 45.9141 157.078 46.2344C156.734 46.5547 156.277 46.7148 155.707 46.7148C155.129 46.7148 154.668 46.5547 154.324 46.2344C153.98 45.9141 153.809 45.5078 153.809 45.0156ZM168.035 43.9375V61H164.531V43.9375H168.035ZM173.285 43.9375V46.6914H159.363V43.9375H173.285ZM177.633 51.0859V61H174.258V48.3203H177.434L177.633 51.0859ZM181.453 48.2383L181.395 51.3672C181.23 51.3438 181.031 51.3242 180.797 51.3086C180.57 51.2852 180.363 51.2734 180.176 51.2734C179.699 51.2734 179.285 51.3359 178.934 51.4609C178.59 51.5781 178.301 51.7539 178.066 51.9883C177.84 52.2227 177.668 52.5078 177.551 52.8438C177.441 53.1797 177.379 53.5625 177.363 53.9922L176.684 53.7812C176.684 52.9609 176.766 52.207 176.93 51.5195C177.094 50.8242 177.332 50.2188 177.645 49.7031C177.965 49.1875 178.355 48.7891 178.816 48.5078C179.277 48.2266 179.805 48.0859 180.398 48.0859C180.586 48.0859 180.777 48.1016 180.973 48.1328C181.168 48.1562 181.328 48.1914 181.453 48.2383ZM189.492 58.1406V52.4922C189.492 52.0859 189.426 51.7383 189.293 51.4492C189.16 51.1523 188.953 50.9219 188.672 50.7578C188.398 50.5938 188.043 50.5117 187.605 50.5117C187.23 50.5117 186.906 50.5781 186.633 50.7109C186.359 50.8359 186.148 51.0195 186 51.2617C185.852 51.4961 185.777 51.7734 185.777 52.0938H182.402C182.402 51.5547 182.527 51.043 182.777 50.5586C183.027 50.0742 183.391 49.6484 183.867 49.2812C184.344 48.9062 184.91 48.6133 185.566 48.4023C186.23 48.1914 186.973 48.0859 187.793 48.0859C188.777 48.0859 189.652 48.25 190.418 48.5781C191.184 48.9062 191.785 49.3984 192.223 50.0547C192.668 50.7109 192.891 51.5312 192.891 52.5156V57.9414C192.891 58.6367 192.934 59.207 193.02 59.6523C193.105 60.0898 193.23 60.4727 193.395 60.8008V61H189.984C189.82 60.6562 189.695 60.2266 189.609 59.7109C189.531 59.1875 189.492 58.6641 189.492 58.1406ZM189.938 53.2773L189.961 55.1875H188.074C187.629 55.1875 187.242 55.2383 186.914 55.3398C186.586 55.4414 186.316 55.5859 186.105 55.7734C185.895 55.9531 185.738 56.1641 185.637 56.4062C185.543 56.6484 185.496 56.9141 185.496 57.2031C185.496 57.4922 185.562 57.7539 185.695 57.9883C185.828 58.2148 186.02 58.3945 186.27 58.5273C186.52 58.6523 186.812 58.7148 187.148 58.7148C187.656 58.7148 188.098 58.6133 188.473 58.4102C188.848 58.207 189.137 57.957 189.34 57.6602C189.551 57.3633 189.66 57.082 189.668 56.8164L190.559 58.2461C190.434 58.5664 190.262 58.8984 190.043 59.2422C189.832 59.5859 189.562 59.9102 189.234 60.2148C188.906 60.5117 188.512 60.7578 188.051 60.9531C187.59 61.1406 187.043 61.2344 186.41 61.2344C185.605 61.2344 184.875 61.0742 184.219 60.7539C183.57 60.4258 183.055 59.9766 182.672 59.4062C182.297 58.8281 182.109 58.1719 182.109 57.4375C182.109 56.7734 182.234 56.1836 182.484 55.668C182.734 55.1523 183.102 54.7188 183.586 54.3672C184.078 54.0078 184.691 53.7383 185.426 53.5586C186.16 53.3711 187.012 53.2773 187.98 53.2773H189.938ZM200.73 58.5977C201.145 58.5977 201.512 58.5195 201.832 58.3633C202.152 58.1992 202.402 57.9727 202.582 57.6836C202.77 57.3867 202.867 57.0391 202.875 56.6406H206.051C206.043 57.5312 205.805 58.3242 205.336 59.0195C204.867 59.707 204.238 60.25 203.449 60.6484C202.66 61.0391 201.777 61.2344 200.801 61.2344C199.816 61.2344 198.957 61.0703 198.223 60.7422C197.496 60.4141 196.891 59.9609 196.406 59.3828C195.922 58.7969 195.559 58.1172 195.316 57.3438C195.074 56.5625 194.953 55.7266 194.953 54.8359V54.4961C194.953 53.5977 195.074 52.7617 195.316 51.9883C195.559 51.207 195.922 50.5273 196.406 49.9492C196.891 49.3633 197.496 48.9062 198.223 48.5781C198.949 48.25 199.801 48.0859 200.777 48.0859C201.816 48.0859 202.727 48.2852 203.508 48.6836C204.297 49.082 204.914 49.6523 205.359 50.3945C205.812 51.1289 206.043 52 206.051 53.0078H202.875C202.867 52.5859 202.777 52.2031 202.605 51.8594C202.441 51.5156 202.199 51.2422 201.879 51.0391C201.566 50.8281 201.18 50.7227 200.719 50.7227C200.227 50.7227 199.824 50.8281 199.512 51.0391C199.199 51.2422 198.957 51.5234 198.785 51.8828C198.613 52.2344 198.492 52.6367 198.422 53.0898C198.359 53.5352 198.328 54.0039 198.328 54.4961V54.8359C198.328 55.3281 198.359 55.8008 198.422 56.2539C198.484 56.707 198.602 57.1094 198.773 57.4609C198.953 57.8125 199.199 58.0898 199.512 58.293C199.824 58.4961 200.23 58.5977 200.73 58.5977ZM211.383 42.9883V61H208.008V42.9883H211.383ZM219.375 48.3203L213.867 54.6016L210.914 57.5898L209.684 55.1523L212.027 52.1758L215.32 48.3203H219.375ZM215.871 61L212.121 55.1406L214.453 53.1016L219.762 61H215.871Z" fill="#888888"/>
<path d="M108.516 110.961L115.617 84.875H124.828L113.32 119H107.367L108.516 110.961ZM102.07 84.875L109.172 110.961L110.367 119H104.344L92.9062 84.875H102.07ZM139.055 112.625V102.172C139.055 101.453 138.953 100.836 138.75 100.32C138.547 99.8047 138.227 99.4062 137.789 99.125C137.352 98.8281 136.766 98.6797 136.031 98.6797C135.438 98.6797 134.93 98.7812 134.508 98.9844C134.086 99.1875 133.766 99.4922 133.547 99.8984C133.328 100.305 133.219 100.82 133.219 101.445H125.32C125.32 100.273 125.578 99.1875 126.094 98.1875C126.625 97.1719 127.375 96.2891 128.344 95.5391C129.328 94.7891 130.5 94.2109 131.859 93.8047C133.234 93.3828 134.766 93.1719 136.453 93.1719C138.469 93.1719 140.266 93.5078 141.844 94.1797C143.438 94.8516 144.695 95.8594 145.617 97.2031C146.539 98.5312 147 100.203 147 102.219V112.602C147 114.258 147.094 115.516 147.281 116.375C147.469 117.219 147.734 117.961 148.078 118.602V119H140.156C139.781 118.219 139.5 117.266 139.312 116.141C139.141 115 139.055 113.828 139.055 112.625ZM140.016 103.508L140.062 107.727H136.57C135.836 107.727 135.211 107.828 134.695 108.031C134.195 108.234 133.789 108.516 133.477 108.875C133.18 109.219 132.961 109.609 132.82 110.047C132.695 110.484 132.633 110.945 132.633 111.43C132.633 111.898 132.742 112.32 132.961 112.695C133.195 113.055 133.508 113.336 133.898 113.539C134.289 113.742 134.727 113.844 135.211 113.844C136.086 113.844 136.828 113.68 137.438 113.352C138.062 113.008 138.539 112.594 138.867 112.109C139.195 111.625 139.359 111.172 139.359 110.75L141.094 113.984C140.781 114.609 140.422 115.242 140.016 115.883C139.625 116.523 139.133 117.117 138.539 117.664C137.961 118.195 137.25 118.633 136.406 118.977C135.562 119.305 134.539 119.469 133.336 119.469C131.773 119.469 130.336 119.148 129.023 118.508C127.727 117.867 126.688 116.977 125.906 115.836C125.125 114.68 124.734 113.352 124.734 111.852C124.734 110.539 124.969 109.367 125.438 108.336C125.922 107.305 126.648 106.43 127.617 105.711C128.586 104.992 129.82 104.445 131.32 104.07C132.82 103.695 134.586 103.508 136.617 103.508H140.016ZM159.727 83V119H151.805V83H159.727ZM172.945 93.6406V119H165.023V93.6406H172.945ZM164.555 87.1016C164.555 85.9766 164.961 85.0547 165.773 84.3359C166.586 83.6172 167.641 83.2578 168.938 83.2578C170.234 83.2578 171.289 83.6172 172.102 84.3359C172.914 85.0547 173.32 85.9766 173.32 87.1016C173.32 88.2266 172.914 89.1484 172.102 89.8672C171.289 90.5859 170.234 90.9453 168.938 90.9453C167.641 90.9453 166.586 90.5859 165.773 89.8672C164.961 89.1484 164.555 88.2266 164.555 87.1016ZM192.398 113.188V83H200.344V119H193.219L192.398 113.188ZM176.836 106.625V106.133C176.836 104.211 177.047 102.461 177.469 100.883C177.891 99.2891 178.516 97.9219 179.344 96.7812C180.172 95.625 181.203 94.7344 182.438 94.1094C183.672 93.4844 185.094 93.1719 186.703 93.1719C188.141 93.1719 189.398 93.5078 190.477 94.1797C191.555 94.8359 192.477 95.7578 193.242 96.9453C194.008 98.1328 194.633 99.5234 195.117 101.117C195.602 102.695 195.969 104.398 196.219 106.227V106.812C195.969 108.531 195.602 110.156 195.117 111.688C194.633 113.203 194.008 114.547 193.242 115.719C192.477 116.891 191.547 117.812 190.453 118.484C189.375 119.141 188.109 119.469 186.656 119.469C185.047 119.469 183.625 119.148 182.391 118.508C181.172 117.867 180.148 116.969 179.32 115.812C178.508 114.656 177.891 113.297 177.469 111.734C177.047 110.172 176.836 108.469 176.836 106.625ZM184.734 106.133V106.625C184.734 107.578 184.797 108.461 184.922 109.273C185.047 110.086 185.258 110.805 185.555 111.43C185.867 112.039 186.273 112.516 186.773 112.859C187.289 113.203 187.922 113.375 188.672 113.375C189.688 113.375 190.523 113.133 191.18 112.648C191.852 112.164 192.344 111.477 192.656 110.586C192.984 109.695 193.125 108.648 193.078 107.445V105.594C193.109 104.562 193.039 103.656 192.867 102.875C192.695 102.078 192.422 101.414 192.047 100.883C191.688 100.352 191.227 99.9531 190.664 99.6875C190.117 99.4062 189.469 99.2656 188.719 99.2656C187.984 99.2656 187.359 99.4375 186.844 99.7812C186.344 100.125 185.938 100.609 185.625 101.234C185.312 101.844 185.086 102.57 184.945 103.414C184.805 104.242 184.734 105.148 184.734 106.133ZM217.992 112.625V102.172C217.992 101.453 217.891 100.836 217.688 100.32C217.484 99.8047 217.164 99.4062 216.727 99.125C216.289 98.8281 215.703 98.6797 214.969 98.6797C214.375 98.6797 213.867 98.7812 213.445 98.9844C213.023 99.1875 212.703 99.4922 212.484 99.8984C212.266 100.305 212.156 100.82 212.156 101.445H204.258C204.258 100.273 204.516 99.1875 205.031 98.1875C205.562 97.1719 206.312 96.2891 207.281 95.5391C208.266 94.7891 209.438 94.2109 210.797 93.8047C212.172 93.3828 213.703 93.1719 215.391 93.1719C217.406 93.1719 219.203 93.5078 220.781 94.1797C222.375 94.8516 223.633 95.8594 224.555 97.2031C225.477 98.5312 225.938 100.203 225.938 102.219V112.602C225.938 114.258 226.031 115.516 226.219 116.375C226.406 117.219 226.672 117.961 227.016 118.602V119H219.094C218.719 118.219 218.438 117.266 218.25 116.141C218.078 115 217.992 113.828 217.992 112.625ZM218.953 103.508L219 107.727H215.508C214.773 107.727 214.148 107.828 213.633 108.031C213.133 108.234 212.727 108.516 212.414 108.875C212.117 109.219 211.898 109.609 211.758 110.047C211.633 110.484 211.57 110.945 211.57 111.43C211.57 111.898 211.68 112.32 211.898 112.695C212.133 113.055 212.445 113.336 212.836 113.539C213.227 113.742 213.664 113.844 214.148 113.844C215.023 113.844 215.766 113.68 216.375 113.352C217 113.008 217.477 112.594 217.805 112.109C218.133 111.625 218.297 111.172 218.297 110.75L220.031 113.984C219.719 114.609 219.359 115.242 218.953 115.883C218.562 116.523 218.07 117.117 217.477 117.664C216.898 118.195 216.188 118.633 215.344 118.977C214.5 119.305 213.477 119.469 212.273 119.469C210.711 119.469 209.273 119.148 207.961 118.508C206.664 117.867 205.625 116.977 204.844 115.836C204.062 114.68 203.672 113.352 203.672 111.852C203.672 110.539 203.906 109.367 204.375 108.336C204.859 107.305 205.586 106.43 206.555 105.711C207.523 104.992 208.758 104.445 210.258 104.07C211.758 103.695 213.523 103.508 215.555 103.508H218.953ZM243.68 93.6406V99.125H228.398V93.6406H243.68ZM231.609 87.3359H239.508V110.727C239.508 111.398 239.586 111.922 239.742 112.297C239.898 112.656 240.164 112.914 240.539 113.07C240.93 113.211 241.445 113.281 242.086 113.281C242.539 113.281 242.914 113.273 243.211 113.258C243.508 113.227 243.789 113.188 244.055 113.141V118.789C243.383 119.008 242.68 119.172 241.945 119.281C241.211 119.406 240.43 119.469 239.602 119.469C237.914 119.469 236.469 119.203 235.266 118.672C234.078 118.141 233.172 117.305 232.547 116.164C231.922 115.023 231.609 113.539 231.609 111.711V87.3359ZM255.164 93.6406V119H247.242V93.6406H255.164ZM246.773 87.1016C246.773 85.9766 247.18 85.0547 247.992 84.3359C248.805 83.6172 249.859 83.2578 251.156 83.2578C252.453 83.2578 253.508 83.6172 254.32 84.3359C255.133 85.0547 255.539 85.9766 255.539 87.1016C255.539 88.2266 255.133 89.1484 254.32 89.8672C253.508 90.5859 252.453 90.9453 251.156 90.9453C249.859 90.9453 248.805 90.5859 247.992 89.8672C247.18 89.1484 246.773 88.2266 246.773 87.1016ZM259.055 106.578V106.086C259.055 104.227 259.32 102.516 259.852 100.953C260.383 99.375 261.164 98.0078 262.195 96.8516C263.227 95.6953 264.5 94.7969 266.016 94.1562C267.531 93.5 269.281 93.1719 271.266 93.1719C273.266 93.1719 275.023 93.5 276.539 94.1562C278.07 94.7969 279.352 95.6953 280.383 96.8516C281.414 98.0078 282.195 99.375 282.727 100.953C283.258 102.516 283.523 104.227 283.523 106.086V106.578C283.523 108.422 283.258 110.133 282.727 111.711C282.195 113.273 281.414 114.641 280.383 115.812C279.352 116.969 278.078 117.867 276.562 118.508C275.047 119.148 273.297 119.469 271.312 119.469C269.328 119.469 267.57 119.148 266.039 118.508C264.508 117.867 263.227 116.969 262.195 115.812C261.164 114.641 260.383 113.273 259.852 111.711C259.32 110.133 259.055 108.422 259.055 106.578ZM266.953 106.086V106.578C266.953 107.531 267.023 108.422 267.164 109.25C267.305 110.078 267.539 110.805 267.867 111.43C268.195 112.039 268.641 112.516 269.203 112.859C269.766 113.203 270.469 113.375 271.312 113.375C272.141 113.375 272.828 113.203 273.375 112.859C273.938 112.516 274.383 112.039 274.711 111.43C275.039 110.805 275.273 110.078 275.414 109.25C275.555 108.422 275.625 107.531 275.625 106.578V106.086C275.625 105.164 275.555 104.297 275.414 103.484C275.273 102.656 275.039 101.93 274.711 101.305C274.383 100.664 273.938 100.164 273.375 99.8047C272.812 99.4453 272.109 99.2656 271.266 99.2656C270.438 99.2656 269.742 99.4453 269.18 99.8047C268.633 100.164 268.195 100.664 267.867 101.305C267.539 101.93 267.305 102.656 267.164 103.484C267.023 104.297 266.953 105.164 266.953 106.086ZM294.797 99.0547V119H286.898V93.6406H294.305L294.797 99.0547ZM293.859 105.453L292.008 105.5C292.008 103.562 292.242 101.836 292.711 100.32C293.18 98.7891 293.844 97.4922 294.703 96.4297C295.562 95.3672 296.586 94.5625 297.773 94.0156C298.977 93.4531 300.312 93.1719 301.781 93.1719C302.953 93.1719 304.023 93.3438 304.992 93.6875C305.977 94.0312 306.82 94.5859 307.523 95.3516C308.242 96.1172 308.789 97.1328 309.164 98.3984C309.555 99.6484 309.75 101.195 309.75 103.039V119H301.805V103.016C301.805 102 301.664 101.227 301.383 100.695C301.102 100.148 300.695 99.7734 300.164 99.5703C299.633 99.3672 298.984 99.2656 298.219 99.2656C297.406 99.2656 296.719 99.4219 296.156 99.7344C295.594 100.047 295.141 100.484 294.797 101.047C294.469 101.594 294.227 102.242 294.07 102.992C293.93 103.742 293.859 104.562 293.859 105.453Z" fill="black"/>
<path d="M1134 0H1348C1356.28 0 1363 6.71573 1363 15V148C1363 156.284 1356.28 163 1348 163H1134V0Z" fill="#264653"/>
<path d="M1210.62 43.625H1286.38V119.375H1210.62V43.625Z" fill="white" fill-opacity="0.01"/>
<path d="M1276.91 72.0312V105.172C1276.91 107.787 1274.79 109.906 1272.17 109.906H1224.83C1222.21 109.906 1220.09 107.787 1220.09 105.172V57.8281C1220.09 55.2134 1222.21 53.0938 1224.83 53.0938H1261.12" stroke="white" stroke-width="7.24" stroke-linecap="round" stroke-linejoin="round"/>
<path d="M1232.72 75.1875L1248.5 87.8125L1276.91 53.0938" stroke="white" stroke-width="7.24" stroke-linecap="round" stroke-linejoin="round"/>
</svg>
