<svg width="1363" height="163" viewBox="0 0 1363 163" fill="none" xmlns="http://www.w3.org/2000/svg">
<path d="M0 15C0 6.71573 6.71573 0 15 0H37V163H15C6.71573 163 0 156.284 0 148V15Z" fill="#424242"/>
<rect width="1097" height="163" transform="translate(37)" fill="#F0F0F0"/>
<path d="M101.906 53.9219L94.3945 51.2383V48.0859L104.602 52.375V54.6367L101.906 53.9219ZM94.3945 56.1719L101.918 53.4297L104.602 52.7852V55.0352L94.3945 59.3242V56.1719ZM119.836 46.8555L115.195 61H111.457L117.797 43.9375H120.176L119.836 46.8555ZM123.691 61L119.039 46.8555L118.664 43.9375H121.066L127.441 61H123.691ZM123.48 54.6484V57.4023H114.469V54.6484H123.48ZM134.051 58.5977C134.465 58.5977 134.832 58.5195 135.152 58.3633C135.473 58.1992 135.723 57.9727 135.902 57.6836C136.09 57.3867 136.188 57.0391 136.195 56.6406H139.371C139.363 57.5312 139.125 58.3242 138.656 59.0195C138.188 59.707 137.559 60.25 136.77 60.6484C135.98 61.0391 135.098 61.2344 134.121 61.2344C133.137 61.2344 132.277 61.0703 131.543 60.7422C130.816 60.4141 130.211 59.9609 129.727 59.3828C129.242 58.7969 128.879 58.1172 128.637 57.3438C128.395 56.5625 128.273 55.7266 128.273 54.8359V54.4961C128.273 53.5977 128.395 52.7617 128.637 51.9883C128.879 51.207 129.242 50.5273 129.727 49.9492C130.211 49.3633 130.816 48.9062 131.543 48.5781C132.27 48.25 133.121 48.0859 134.098 48.0859C135.137 48.0859 136.047 48.2852 136.828 48.6836C137.617 49.082 138.234 49.6523 138.68 50.3945C139.133 51.1289 139.363 52 139.371 53.0078H136.195C136.188 52.5859 136.098 52.2031 135.926 51.8594C135.762 51.5156 135.52 51.2422 135.199 51.0391C134.887 50.8281 134.5 50.7227 134.039 50.7227C133.547 50.7227 133.145 50.8281 132.832 51.0391C132.52 51.2422 132.277 51.5234 132.105 51.8828C131.934 52.2344 131.812 52.6367 131.742 53.0898C131.68 53.5352 131.648 54.0039 131.648 54.4961V54.8359C131.648 55.3281 131.68 55.8008 131.742 56.2539C131.805 56.707 131.922 57.1094 132.094 57.4609C132.273 57.8125 132.52 58.0898 132.832 58.293C133.145 58.4961 133.551 58.5977 134.051 58.5977ZM146.566 58.5977C146.98 58.5977 147.348 58.5195 147.668 58.3633C147.988 58.1992 148.238 57.9727 148.418 57.6836C148.605 57.3867 148.703 57.0391 148.711 56.6406H151.887C151.879 57.5312 151.641 58.3242 151.172 59.0195C150.703 59.707 150.074 60.25 149.285 60.6484C148.496 61.0391 147.613 61.2344 146.637 61.2344C145.652 61.2344 144.793 61.0703 144.059 60.7422C143.332 60.4141 142.727 59.9609 142.242 59.3828C141.758 58.7969 141.395 58.1172 141.152 57.3438C140.91 56.5625 140.789 55.7266 140.789 54.8359V54.4961C140.789 53.5977 140.91 52.7617 141.152 51.9883C141.395 51.207 141.758 50.5273 142.242 49.9492C142.727 49.3633 143.332 48.9062 144.059 48.5781C144.785 48.25 145.637 48.0859 146.613 48.0859C147.652 48.0859 148.562 48.2852 149.344 48.6836C150.133 49.082 150.75 49.6523 151.195 50.3945C151.648 51.1289 151.879 52 151.887 53.0078H148.711C148.703 52.5859 148.613 52.2031 148.441 51.8594C148.277 51.5156 148.035 51.2422 147.715 51.0391C147.402 50.8281 147.016 50.7227 146.555 50.7227C146.062 50.7227 145.66 50.8281 145.348 51.0391C145.035 51.2422 144.793 51.5234 144.621 51.8828C144.449 52.2344 144.328 52.6367 144.258 53.0898C144.195 53.5352 144.164 54.0039 144.164 54.4961V54.8359C144.164 55.3281 144.195 55.8008 144.258 56.2539C144.32 56.707 144.438 57.1094 144.609 57.4609C144.789 57.8125 145.035 58.0898 145.348 58.293C145.66 58.4961 146.066 58.5977 146.566 58.5977ZM157.406 48.3203V61H154.02V48.3203H157.406ZM153.809 45.0156C153.809 44.5234 153.98 44.1172 154.324 43.7969C154.668 43.4766 155.129 43.3164 155.707 43.3164C156.277 43.3164 156.734 43.4766 157.078 43.7969C157.43 44.1172 157.605 44.5234 157.605 45.0156C157.605 45.5078 157.43 45.9141 157.078 46.2344C156.734 46.5547 156.277 46.7148 155.707 46.7148C155.129 46.7148 154.668 46.5547 154.324 46.2344C153.98 45.9141 153.809 45.5078 153.809 45.0156ZM168.035 43.9375V61H164.531V43.9375H168.035ZM173.285 43.9375V46.6914H159.363V43.9375H173.285ZM177.633 51.0859V61H174.258V48.3203H177.434L177.633 51.0859ZM181.453 48.2383L181.395 51.3672C181.23 51.3438 181.031 51.3242 180.797 51.3086C180.57 51.2852 180.363 51.2734 180.176 51.2734C179.699 51.2734 179.285 51.3359 178.934 51.4609C178.59 51.5781 178.301 51.7539 178.066 51.9883C177.84 52.2227 177.668 52.5078 177.551 52.8438C177.441 53.1797 177.379 53.5625 177.363 53.9922L176.684 53.7812C176.684 52.9609 176.766 52.207 176.93 51.5195C177.094 50.8242 177.332 50.2188 177.645 49.7031C177.965 49.1875 178.355 48.7891 178.816 48.5078C179.277 48.2266 179.805 48.0859 180.398 48.0859C180.586 48.0859 180.777 48.1016 180.973 48.1328C181.168 48.1562 181.328 48.1914 181.453 48.2383ZM189.492 58.1406V52.4922C189.492 52.0859 189.426 51.7383 189.293 51.4492C189.16 51.1523 188.953 50.9219 188.672 50.7578C188.398 50.5938 188.043 50.5117 187.605 50.5117C187.23 50.5117 186.906 50.5781 186.633 50.7109C186.359 50.8359 186.148 51.0195 186 51.2617C185.852 51.4961 185.777 51.7734 185.777 52.0938H182.402C182.402 51.5547 182.527 51.043 182.777 50.5586C183.027 50.0742 183.391 49.6484 183.867 49.2812C184.344 48.9062 184.91 48.6133 185.566 48.4023C186.23 48.1914 186.973 48.0859 187.793 48.0859C188.777 48.0859 189.652 48.25 190.418 48.5781C191.184 48.9062 191.785 49.3984 192.223 50.0547C192.668 50.7109 192.891 51.5312 192.891 52.5156V57.9414C192.891 58.6367 192.934 59.207 193.02 59.6523C193.105 60.0898 193.23 60.4727 193.395 60.8008V61H189.984C189.82 60.6562 189.695 60.2266 189.609 59.7109C189.531 59.1875 189.492 58.6641 189.492 58.1406ZM189.938 53.2773L189.961 55.1875H188.074C187.629 55.1875 187.242 55.2383 186.914 55.3398C186.586 55.4414 186.316 55.5859 186.105 55.7734C185.895 55.9531 185.738 56.1641 185.637 56.4062C185.543 56.6484 185.496 56.9141 185.496 57.2031C185.496 57.4922 185.562 57.7539 185.695 57.9883C185.828 58.2148 186.02 58.3945 186.27 58.5273C186.52 58.6523 186.812 58.7148 187.148 58.7148C187.656 58.7148 188.098 58.6133 188.473 58.4102C188.848 58.207 189.137 57.957 189.34 57.6602C189.551 57.3633 189.66 57.082 189.668 56.8164L190.559 58.2461C190.434 58.5664 190.262 58.8984 190.043 59.2422C189.832 59.5859 189.562 59.9102 189.234 60.2148C188.906 60.5117 188.512 60.7578 188.051 60.9531C187.59 61.1406 187.043 61.2344 186.41 61.2344C185.605 61.2344 184.875 61.0742 184.219 60.7539C183.57 60.4258 183.055 59.9766 182.672 59.4062C182.297 58.8281 182.109 58.1719 182.109 57.4375C182.109 56.7734 182.234 56.1836 182.484 55.668C182.734 55.1523 183.102 54.7188 183.586 54.3672C184.078 54.0078 184.691 53.7383 185.426 53.5586C186.16 53.3711 187.012 53.2773 187.98 53.2773H189.938ZM200.73 58.5977C201.145 58.5977 201.512 58.5195 201.832 58.3633C202.152 58.1992 202.402 57.9727 202.582 57.6836C202.77 57.3867 202.867 57.0391 202.875 56.6406H206.051C206.043 57.5312 205.805 58.3242 205.336 59.0195C204.867 59.707 204.238 60.25 203.449 60.6484C202.66 61.0391 201.777 61.2344 200.801 61.2344C199.816 61.2344 198.957 61.0703 198.223 60.7422C197.496 60.4141 196.891 59.9609 196.406 59.3828C195.922 58.7969 195.559 58.1172 195.316 57.3438C195.074 56.5625 194.953 55.7266 194.953 54.8359V54.4961C194.953 53.5977 195.074 52.7617 195.316 51.9883C195.559 51.207 195.922 50.5273 196.406 49.9492C196.891 49.3633 197.496 48.9062 198.223 48.5781C198.949 48.25 199.801 48.0859 200.777 48.0859C201.816 48.0859 202.727 48.2852 203.508 48.6836C204.297 49.082 204.914 49.6523 205.359 50.3945C205.812 51.1289 206.043 52 206.051 53.0078H202.875C202.867 52.5859 202.777 52.2031 202.605 51.8594C202.441 51.5156 202.199 51.2422 201.879 51.0391C201.566 50.8281 201.18 50.7227 200.719 50.7227C200.227 50.7227 199.824 50.8281 199.512 51.0391C199.199 51.2422 198.957 51.5234 198.785 51.8828C198.613 52.2344 198.492 52.6367 198.422 53.0898C198.359 53.5352 198.328 54.0039 198.328 54.4961V54.8359C198.328 55.3281 198.359 55.8008 198.422 56.2539C198.484 56.707 198.602 57.1094 198.773 57.4609C198.953 57.8125 199.199 58.0898 199.512 58.293C199.824 58.4961 200.23 58.5977 200.73 58.5977ZM211.383 42.9883V61H208.008V42.9883H211.383ZM219.375 48.3203L213.867 54.6016L210.914 57.5898L209.684 55.1523L212.027 52.1758L215.32 48.3203H219.375ZM215.871 61L212.121 55.1406L214.453 53.1016L219.762 61H215.871Z" fill="#888888"/>
<path d="M114.117 84.875H122.344V107.164C122.344 109.82 121.789 112.07 120.68 113.914C119.57 115.742 118.016 117.125 116.016 118.062C114.016 119 111.664 119.469 108.961 119.469C106.289 119.469 103.938 119 101.906 118.062C99.8906 117.125 98.3125 115.742 97.1719 113.914C96.0469 112.07 95.4844 109.82 95.4844 107.164V84.875H103.734V107.164C103.734 108.57 103.938 109.719 104.344 110.609C104.75 111.484 105.344 112.125 106.125 112.531C106.906 112.938 107.852 113.141 108.961 113.141C110.086 113.141 111.031 112.938 111.797 112.531C112.562 112.125 113.141 111.484 113.531 110.609C113.922 109.719 114.117 108.57 114.117 107.164V84.875ZM136.266 84.875V119H128.062V84.875H136.266ZM172.523 84.875H180.75V107.164C180.75 109.82 180.195 112.07 179.086 113.914C177.977 115.742 176.422 117.125 174.422 118.062C172.422 119 170.07 119.469 167.367 119.469C164.695 119.469 162.344 119 160.312 118.062C158.297 117.125 156.719 115.742 155.578 113.914C154.453 112.07 153.891 109.82 153.891 107.164V84.875H162.141V107.164C162.141 108.57 162.344 109.719 162.75 110.609C163.156 111.484 163.75 112.125 164.531 112.531C165.312 112.938 166.258 113.141 167.367 113.141C168.492 113.141 169.438 112.938 170.203 112.531C170.969 112.125 171.547 111.484 171.938 110.609C172.328 109.719 172.523 108.57 172.523 107.164V84.875ZM193.078 84.875L198.656 96.2188L204.234 84.875H213.609L204.094 101.797L213.867 119H204.398L198.656 107.445L192.914 119H183.422L193.219 101.797L183.68 84.875H193.078Z" fill="black"/>
<path d="M1134 0H1348C1356.28 0 1363 6.71573 1363 15V148C1363 156.284 1356.28 163 1348 163H1134V0Z" fill="#264653"/>
<path d="M1248.5 111.917C1244.51 111.917 1240.55 111.13 1236.86 109.601C1233.17 108.073 1229.82 105.832 1226.99 103.008C1221.29 97.3036 1218.08 89.567 1218.08 81.5C1218.08 73.433 1221.29 65.6964 1226.99 59.9922C1232.7 54.2879 1240.43 51.0833 1248.5 51.0833C1265.23 51.0833 1278.92 63.25 1278.92 78.4583C1278.92 83.2985 1276.99 87.9405 1273.57 91.363C1270.15 94.7856 1265.51 96.7083 1260.67 96.7083H1255.19C1254.28 96.7083 1253.67 97.3167 1253.67 98.2292C1253.67 98.5333 1253.97 98.8375 1253.97 99.1417C1255.19 100.662 1255.8 102.487 1255.8 104.312C1256.1 108.571 1252.76 111.917 1248.5 111.917ZM1248.5 57.1667C1242.05 57.1667 1235.86 59.7303 1231.29 64.2937C1226.73 68.8571 1224.17 75.0464 1224.17 81.5C1224.17 87.9536 1226.73 94.1429 1231.29 98.7063C1235.86 103.27 1242.05 105.833 1248.5 105.833C1249.41 105.833 1250.02 105.225 1250.02 104.312C1250.02 103.704 1249.72 103.4 1249.72 103.096C1248.5 101.575 1247.89 100.054 1247.89 98.2292C1247.89 93.9708 1251.24 90.625 1255.5 90.625H1260.67C1263.89 90.625 1266.99 89.3432 1269.27 87.0615C1271.55 84.7798 1272.83 81.6851 1272.83 78.4583C1272.83 66.5958 1261.88 57.1667 1248.5 57.1667ZM1231.77 75.4167C1234.2 75.4167 1236.33 77.5458 1236.33 79.9792C1236.33 82.4125 1234.2 84.5417 1231.77 84.5417C1229.34 84.5417 1227.21 82.4125 1227.21 79.9792C1227.21 77.5458 1229.34 75.4167 1231.77 75.4167ZM1240.9 63.25C1243.33 63.25 1245.46 65.3792 1245.46 67.8125C1245.46 70.2458 1243.33 72.375 1240.9 72.375C1238.46 72.375 1236.33 70.2458 1236.33 67.8125C1236.33 65.3792 1238.46 63.25 1240.9 63.25ZM1256.1 63.25C1258.54 63.25 1260.67 65.3792 1260.67 67.8125C1260.67 70.2458 1258.54 72.375 1256.1 72.375C1253.67 72.375 1251.54 70.2458 1251.54 67.8125C1251.54 65.3792 1253.67 63.25 1256.1 63.25ZM1265.23 75.4167C1267.66 75.4167 1269.79 77.5458 1269.79 79.9792C1269.79 82.4125 1267.66 84.5417 1265.23 84.5417C1262.8 84.5417 1260.67 82.4125 1260.67 79.9792C1260.67 77.5458 1262.8 75.4167 1265.23 75.4167Z" fill="white"/>
</svg>
